<?xml version="1.0" encoding="UTF-8" standalone="no"?>
<!-- Created with Inkscape (http://www.inkscape.org/) -->

<svg
   xmlns:dc="http://purl.org/dc/elements/1.1/"
   xmlns:cc="http://creativecommons.org/ns#"
   xmlns:rdf="http://www.w3.org/1999/02/22-rdf-syntax-ns#"
   xmlns:svg="http://www.w3.org/2000/svg"
   xmlns="http://www.w3.org/2000/svg"
   xmlns:sodipodi="http://sodipodi.sourceforge.net/DTD/sodipodi-0.dtd"
   xmlns:inkscape="http://www.inkscape.org/namespaces/inkscape"
   width="5in"
   height="10in"
   viewBox="0 0 450 900"
   id="svg5647"
   version="1.1"
   inkscape:version="0.91 r13725"
   sodipodi:docname="BlackBlue5Row.svg">
  <defs
     id="defs5649">
    <inkscape:path-effect
       effect="skeletal"
       id="path-effect6806"
       is_visible="true"
       pattern="m 55.583999,-301.97746 -23.76725,18.36925 23.76725,18.3709 23.767244,-18.3709 -23.767244,-18.36925 z m 67.248591,0.12775 c -23.380347,0 -42.334457,18.2415 -42.334457,18.2415 0,0 18.95411,18.24315 42.334457,18.24315 23.38036,0 42.33314,-18.24315 42.33314,-18.24315 0,0 -18.95278,-18.2415 -42.33314,-18.2415 z"
       copytype="repeated"
       prop_scale="1"
       scale_y_rel="false"
       spacing="0"
       normal_offset="0"
       tang_offset="0"
       prop_units="false"
       vertical_pattern="false"
       fuse_tolerance="0" />
  </defs>
  <sodipodi:namedview
     id="base"
     pagecolor="#ffffff"
     bordercolor="#666666"
     borderopacity="1.0"
     inkscape:pageopacity="0.0"
     inkscape:pageshadow="2"
     inkscape:zoom="1.4"
     inkscape:cx="-3.8614241"
     inkscape:cy="421.32246"
     inkscape:document-units="px"
     inkscape:current-layer="layer1"
     showgrid="false"
     units="in"
     width="11in"
     inkscape:window-width="1920"
     inkscape:window-height="1137"
     inkscape:window-x="1272"
     inkscape:window-y="-8"
     inkscape:window-maximized="1" />
  <metadata
     id="metadata5652">
    <rdf:RDF>
      <cc:Work
         rdf:about="">
        <dc:format>image/svg+xml</dc:format>
        <dc:type
           rdf:resource="http://purl.org/dc/dcmitype/StillImage" />
        <dc:title></dc:title>
      </cc:Work>
    </rdf:RDF>
  </metadata>
  <g
     inkscape:label="Layer 1"
     inkscape:groupmode="layer"
     id="layer1"
     transform="translate(0,-152.3622)">
    <path
       style="display:inline;fill:#000000;fill-opacity:1;fill-rule:evenodd;stroke:#000000;stroke-width:1px;stroke-linecap:butt;stroke-linejoin:miter;stroke-opacity:1"
       d="M 245.81324,299.70966 C 225.67474,225.68154 165.03029,186.87555 102.66665,174.22371 65.121457,172.48923 12.427055,172.64556 12.427055,172.64556 l 38.264169,681.79858 73.685866,0.54464 c 0,0 18.45107,-3.37477 47.69348,-9.33734 11.43129,-2.33086 34.17776,-15.63244 39.27877,-28.04361 16.13185,-21.29149 22.73842,-47.25317 34.4639,-87.94515 z"
       id="path6930"
       inkscape:connector-curvature="0"
       sodipodi:nodetypes="cccccscc"
       class="colorable" />
    <path
       style="display:inline;fill:none;fill-rule:evenodd;stroke:#00fff4;stroke-width:1px;stroke-linecap:butt;stroke-linejoin:miter;stroke-opacity:1"
       d="m 245.81324,400.86041 c -6.22124,-14.97018 -13.94937,-29.63865 -28.76881,-42.88722 0,0 7.38359,-122.13114 -113.99452,-146.64511 l -88.217599,-1.38506"
       id="path6932"
       inkscape:connector-curvature="0"
       sodipodi:nodetypes="cccc"
       class="strokeable" />
    <path
       style="display:inline;fill:none;fill-rule:evenodd;stroke:#00fff5;stroke-width:1px;stroke-linecap:butt;stroke-linejoin:miter;stroke-opacity:1"
       d="m 245.81324,455.73767 c -12.89167,18.80694 -22.22608,39.92396 -12.64711,73.32335 -8.52908,-10.054 -17.88327,-10.19506 -27.63718,-5.53384 11.58989,2.15564 23.4516,17.77273 24.41283,33.20302 -18.90907,-10.26604 -25.25796,-5.44234 -32.24338,-1.38345 36.14869,14.62382 38.2383,67.79917 -2.3031,81.16296 -8.10329,1.91781 -17.30621,1.17234 -24.87347,-2.30577 -5.82225,-2.67605 -10.73405,-7.75188 -13.81859,-13.37344 -2.9431,-5.36378 -4.35325,-11.90182 -3.68496,-17.98497 0.53349,-4.85594 2.0308,-10.51527 5.98806,-13.37344 16.54593,-11.9505 39.99812,-2.82238 45.14072,14.7569 6.16402,-16.67795 -8.84748,-56.11266 -49.74692,-39.19801 21.56401,-27.03224 31.22246,-28.3438 41.45578,-30.89727 -12.15918,-6.94292 -25.09224,-9.86016 -40.30422,-0.92231 19.80251,-24.05029 33.23361,-34.01608 46.29228,-35.96994 -13.1387,-11.37223 -28.24652,-17.93914 -51.1288,-5.53384 12.4641,-17.09857 25.81366,-33.26397 49.74695,-38.27574 -19.42207,-11.033 -38.15278,-13.52919 -55.73501,-1.84461 11.27091,-16.3403 25.52068,-29.91131 45.37105,-38.27571 -15.39308,-9.95526 -33.24737,-14.07382 -50.43787,-6.45614 10.64511,-13.62571 22.19058,-26.81873 47.90445,-33.20304 -15.21196,-9.42672 -30.86186,-14.90741 -47.90445,-7.8396 8.2767,-14.73332 14.94819,-29.95365 42.83765,-38.73686 -15.00251,-8.05256 -29.52277,-10.06982 -43.29827,-2.76693 7.14478,-59.46741 -44.669913,-81.64721 -70.014214,-89.4637 43.355054,30.04692 -7.701636,92.95453 34.085864,138.34594 -19.071081,-11.27427 -33.556442,-10.61189 -46.522605,-5.99497 26.57364,11.85731 34.693704,27.97808 46.061975,43.34838 -17.833267,-4.83245 -35.018922,-8.47621 -45.60135,0 21.385467,7.46054 34.459303,24.43109 47.44384,41.5038 -22.241901,-9.59272 -36.538741,-8.04954 -46.522606,-0.46117 20.434053,8.10997 36.065941,21.71442 47.904466,39.65919 -16.705956,-9.74816 -28.625137,-5.11934 -40.534538,-0.46115 30.953518,11.53568 39.132888,24.83615 48.825698,38.73687 -29.224131,-10.41143 -36.604507,-5.78788 -46.98323,-3.22807 74.67495,35.31939 18.13552,92.49939 86.59655,142.95748 -16.26387,-8.27343 -28.0718,-5.12287 -36.98451,4.15277 30.39355,-11.27871 38.11601,25.98493 65.52894,27.69236 -16.73728,7.41019 -12.3038,31.05432 -34.53249,43.78399 -60.645704,9.35936 -37.60715,-61.24491 4.14557,-39.19801 -7.87745,-17.79779 -31.70209,-28.41978 -49.74695,-14.29576 1.58378,-8.80214 2.99119,-27.53019 21.18851,-37.3534 -7.06247,-0.61634 -14.16623,-1.06734 -23.03098,5.53383 12.05093,-42.64751 6.97743,-90.25789 -37.770829,-119.89982 58.498719,81.16295 -31.943292,187.38948 55.274389,241.18313 -6.82186,6.14836 -13.72185,12.20545 -13.35799,26.74684 42.4354,-46.0913 65.90055,11.6636 141.16005,-77.47375 z"
       id="path6934"
       inkscape:connector-curvature="0"
       sodipodi:nodetypes="ccccccaaascccccccccccccccccccccccccccccccccccccc"
       class="strokeable" />
    <path
       style="display:inline;fill:none;fill-rule:evenodd;stroke:#ffffff;stroke-width:1px;stroke-linecap:butt;stroke-linejoin:miter;stroke-opacity:1"
       d="m 114.55651,544.9708 c 16.76196,11.41796 17.36817,54.34405 19.50489,63.63733 13.97958,60.80155 73.75541,83.46647 101.49258,34.844"
       id="path6936"
       inkscape:connector-curvature="0"
       sodipodi:nodetypes="csc"
       class="strokeable str01" />
    <path
       style="display:inline;fill:none;fill-rule:evenodd;stroke:#ffffff;stroke-width:0.99000007;stroke-linecap:butt;stroke-linejoin:miter;stroke-miterlimit:4;stroke-dasharray:1.97999996, 1.97999996;stroke-dashoffset:0;stroke-opacity:1"
       d="M 32.796493,209.94304 69.646092,829.15646"
       id="path6938"
       inkscape:connector-curvature="0"
       sodipodi:nodetypes="cc"
       class="strokeable" />
    <path
       style="display:inline;fill:none;fill-rule:evenodd;stroke:#ffffff;stroke-width:1px;stroke-linecap:butt;stroke-linejoin:miter;stroke-opacity:1"
       d="m 131.36916,586.70517 c 0,0 1.84247,-25.82457 10.13361,-30.89727"
       id="path6948"
       inkscape:connector-curvature="0"
       sodipodi:nodetypes="cc"
       class="strokeable" />
    <path
       sodipodi:nodetypes="cc"
       inkscape:connector-curvature="0"
       id="path6950"
       d="m 124.92046,559.49712 c 0,0 9.67302,-42.88723 33.62526,-53.49378"
       style="display:inline;fill:none;fill-rule:evenodd;stroke:#ffffff;stroke-width:1px;stroke-linecap:butt;stroke-linejoin:miter;stroke-opacity:1"
       class="strokeable" />
    <path
       sodipodi:nodetypes="cc"
       inkscape:connector-curvature="0"
       id="path6952"
       d="m 136.28248,530.44448 c 0,0 -8.29115,-50.72686 -29.01904,-61.79454"
       style="display:inline;fill:none;fill-rule:evenodd;stroke:#ffffff;stroke-width:1px;stroke-linecap:butt;stroke-linejoin:miter;stroke-opacity:1"
       class="strokeable" />
    <path
       sodipodi:nodetypes="cc"
       inkscape:connector-curvature="0"
       id="path6954"
       d="m 129.06604,499.54722 c -1.07639,-11.53367 14.28843,-34.09771 23.95224,-35.04764"
       style="display:inline;fill:none;fill-rule:evenodd;stroke:#ffffff;stroke-width:1px;stroke-linecap:butt;stroke-linejoin:miter;stroke-opacity:1"
       class="strokeable" />
    <path
       sodipodi:nodetypes="cc"
       inkscape:connector-curvature="0"
       id="path6956"
       d="m 133.51877,482.02339 c -0.92126,-9.22306 -8.75179,-52.11031 -29.47968,-56.26069"
       style="display:inline;fill:none;fill-rule:evenodd;stroke:#ffffff;stroke-width:1px;stroke-linecap:butt;stroke-linejoin:miter;stroke-opacity:1"
       class="strokeable" />
    <path
       sodipodi:nodetypes="cc"
       inkscape:connector-curvature="0"
       id="path6958"
       d="m 127.6842,456.19881 c -1.38187,-15.6792 9.21238,-28.13034 17.50354,-33.20302"
       style="display:inline;fill:none;fill-rule:evenodd;stroke:#ffffff;stroke-width:1px;stroke-linecap:butt;stroke-linejoin:miter;stroke-opacity:1"
       class="strokeable" />
    <path
       style="display:inline;fill:none;fill-rule:evenodd;stroke:#00fff4;stroke-width:1px;stroke-linecap:butt;stroke-linejoin:miter;stroke-opacity:1"
       d="m 234.70593,356.01347 c 3.98376,4.64438 7.711,9.72938 11.10677,15.22762 4.45891,-4.67585 8.6772,-9.82381 12.58355,-15.40812 -3.99079,-5.52415 -8.28683,-10.60482 -12.8132,-15.21465 -3.31497,5.54697 -6.96444,10.69061 -10.87712,15.39515 z m -6.40233,-39.05388 c 1.54287,4.67963 4.18239,8.77029 6.90806,12.2302 4.8977,6.20137 10.28176,10.69358 10.28176,10.69358 0,0 4.32274,-5.56478 5.99268,-14.27896 0.92084,-4.81446 0.98563,-10.45485 -0.84297,-16.01632 -4.54863,-13.83412 -17.72981,-19.79617 -21.08383,-21.08872 -0.54548,-0.21015 -0.85123,-0.30915 -0.85123,-0.30915 0,0 -0.0873,0.30982 -0.2232,0.87677 -0.42261,1.76112 -1.33373,6.0779 -1.73171,11.17345 -0.39842,5.10131 -0.30575,11.08919 1.55044,16.71915 z m -17.29739,-35.55673 c 5.90833,1.8848 11.81596,4.1314 17.70186,6.78736 1.08385,-6.3721 1.80363,-12.93187 2.17944,-19.63135 -6.2516,-2.41795 -12.50414,-4.44224 -18.73663,-6.12042 -0.0513,6.46103 -0.42617,12.79849 -1.14467,18.96441 z m -25.63658,-31.93694 c 4.968,5.08602 11.5164,8.05484 16.81887,9.87595 5.32799,1.82988 9.51392,2.5082 9.51392,2.5082 0,0 0.52044,-4.21411 -0.4456,-10.01595 -0.96831,-5.81553 -3.45782,-13.14163 -9.04255,-18.85944 -4.87476,-4.99094 -11.04416,-7.65027 -16.35734,-8.98497 -6.97549,-1.82661 -12.27219,-1.13101 -12.27219,-1.13101 0,0 0.90514,5.29106 2.98267,11.53667 1.73236,4.95708 4.4283,10.59273 8.80222,15.07055 z m -30.38656,-25.12653 c 5.95717,-0.95269 12.17282,-1.46576 18.60167,-1.48069 -1.66124,-6.24822 -3.88201,-12.53854 -6.65092,-18.79784 -6.75266,0.50049 -13.2581,1.48452 -19.47102,2.89352 3.03592,5.75908 5.5465,11.57847 7.52027,17.38501 z M 118.63978,208.9489 c 6.55779,1.68198 13.43243,0.98227 18.79144,0.007 5.39422,-0.98212 9.36131,-2.31427 9.36131,-2.31427 0,0 -1.53941,-3.99229 -5.32882,-8.65149 -3.79952,-4.67169 -9.86468,-9.90132 -17.92955,-11.94566 -8.59252,-2.1781 -16.63366,-0.0411 -22.00517,2.49663 -4.577146,2.68535 -7.405858,5.22866 -7.405858,5.22866 0,0 2.529508,2.60514 6.746118,5.39295 4.52309,3.61021 10.8319,8.00698 17.77053,9.78664 z m -40.457348,-3.52906 c 5.286359,-3.88519 10.59992,-7.7687 15.9407,-11.65052 -4.87635,-4.00112 -9.779901,-8.00392 -14.710638,-12.00841 -5.340779,3.88217 -10.654374,7.76603 -15.940751,11.65159 4.930754,4.00413 9.834322,8.00659 14.710689,12.00734 z m -43.129966,-0.5728 c 14.940098,0.16988 27.679728,-11.44315 27.679728,-11.44315 0,0 -11.704439,-11.89866 -26.916781,-12.07981 -15.212341,-0.18114 -27.6789179,11.44424 -27.6789179,11.44424 0,0 11.9758569,11.90882 26.9159709,12.07872 z"
       id="path6960"
       inkscape:connector-curvature="0"
       class="strokeable" />
    <path
       style="display:inline;fill:none;fill-rule:evenodd;stroke:#00c9ff;stroke-width:1px;stroke-linecap:butt;stroke-linejoin:miter;stroke-opacity:1"
       d="m 84.461852,243.17055 c 21.464728,9.06107 41.863988,25.01767 49.369948,47.87686 4.12774,12.10465 4.01836,25.51855 2.30261,37.82845 11.5623,-7.89173 27.17809,-8.25109 39.66187,-2.31891 -16.87056,6.06236 -29.9474,20.01225 -37.35433,36.1371 -1.54871,2.79755 -3.10621,5.58967 -4.67416,8.37623 12.61625,-6.96664 28.68477,-7.93051 41.54862,-1.10458 1.92129,0.82385 3.76618,1.81008 5.63757,2.73879 -20.84567,6.12087 -37.17267,22.28464 -48.85505,40.07603 12.63162,-6.47956 27.96332,-10.03182 41.63077,-4.62092 3.76131,1.22495 7.33243,2.94799 10.84284,4.75584 -17.97367,8.9603 -34.18092,23.20959 -43.72632,41.10497 1.42557,2.80967 4.64175,0.1575 6.28369,-1.08065 12.74914,-8.12682 29.85402,-8.28016 43.18724,-1.5762 1.75545,2.66205 -2.67715,3.11926 -4.14526,3.98834 -18.79279,8.7378 -31.88543,25.68082 -42.66936,42.78466 11.60746,-6.28853 25.00375,-13.23499 38.56736,-9.46356 5.05702,1.41886 9.76271,3.95128 13.84577,7.24677 -18.2428,6.5424 -30.97009,22.19241 -42.94542,36.63106 -1.26256,1.89106 -2.42405,3.99252 -3.53166,6.04759 10.04801,-4.67529 21.22115,-11.02307 32.63636,-7.40943 1.89995,-0.15167 5.3035,1.8348 2.72808,3.57988 -14.90541,6.4152 -25.36244,19.68005 -34.94251,32.17229 0.007,2.59063 3.31881,2.3444 4.6413,0.87384 11.80011,-5.74564 27.8589,-6.66478 37.85952,3.1234 6.66844,6.27091 10.05621,15.30066 10.74233,24.30513 -8.69632,-11.61074 -24.93901,-16.97418 -38.63034,-11.72068 -6.85484,2.33672 -12.19522,8.19241 -13.50569,15.36739 -3.4619,15.18749 5.36363,32.24842 19.71884,38.17952 15.82795,7.32931 35.82319,1.40777 46.72602,-11.98863 11.51985,-13.01383 13.53544,-32.69786 6.32316,-48.00056 -4.19825,-9.47021 -11.6021,-17.40914 -20.72141,-22.30522 8.64888,-3.49323 18.02967,-0.26869 25.64788,4.19936 1.2757,0.38699 4.225,3.51044 4.13318,0.63645 -0.34263,-14.45691 -7.90572,-28.60534 -20.20753,-36.5037 6.84918,-1.05569 13.57775,1.89559 18.16838,6.90757 1.60709,1.05556 3.45436,5.59282 5.42848,2.76655 0.84638,-2.69657 -1.52325,-5.38574 -1.6953,-8.1698 -4.91824,-19.45282 -3.14603,-41.13742 7.72204,-58.33856 2.20438,7.71438 0.41736,15.86498 1.02273,23.75281 0,79.71404 0,159.4281 0,239.14218 -17.85333,20.71692 -38.15471,41.49086 -64.85583,50.07797 -19.71677,6.25763 -42.41477,1.44795 -60.27373,13.47341 -3.96833,2.449 -7.48663,5.5258 -11.07106,8.48757 1.89522,-7.65344 7.24518,-13.62931 12.73225,-18.89029 2.79644,-2.71307 -2.0994,-5.04367 -4.20789,-6.05916 -20.122093,-12.78388 -33.395501,-35.65556 -34.589324,-59.49979 -3.847925,-42.58942 10.5659,-84.85688 4.008985,-127.27181 -1.56072,-12.04243 -5.340401,-23.62197 -9.863538,-34.78308 -1.808311,-4.14654 3.121427,0.95291 4.353934,2.22731 19.105373,20.29616 26.904553,49.53443 23.412753,76.91037 -1.14343,11.07359 -3.746967,21.94629 -6.979956,32.58056 5.499486,-5.16518 12.161506,-9.12213 19.620606,-10.60724 -10.53673,9.89766 -15.41007,24.61392 -15.82068,38.68391 2.27687,2.203 4.35428,-1.44731 6.15145,-2.52952 12.44697,-8.48488 30.49754,-4.14379 39.45418,7.46962 -0.19902,1.00006 -5.36367,-0.98032 -7.6428,-0.673 -13.57367,-0.71259 -27.35416,9.638 -28.99764,23.24214 -1.51178,9.02383 2.99133,19.1105 11.7789,22.77806 9.04289,4.40585 19.57261,4.31456 29.17146,2.14744 13.0727,-7.11957 18.79704,-21.85135 24.5944,-34.66396 2.96536,-5.44421 8.55258,-8.78712 13.86212,-11.33735 0.28787,-2.86245 -3.37958,-2.39005 -5.22064,-2.31513 -13.75331,-0.87493 -23.32332,-12.19336 -33.03185,-20.59157 -5.33752,-4.76272 -12.02389,-7.33792 -18.48453,-10.08143 8.39822,-2.7491 16.71425,1.7149 24.38031,4.36546 2.59559,-0.85412 1.64833,-4.29655 -0.53279,-5.09302 -9.13381,-7.24082 -17.97215,-15.11943 -24.134,-25.1482 -9.4999,-14.46775 -13.31678,-31.69712 -15.21427,-48.67127 -2.53161,-18.09609 -6.71369,-37.53926 -20.145816,-50.74503 -6.207645,-6.45228 -13.606977,-11.35726 -21.28568,-15.89198 14.57318,-3.49822 29.092356,1.96434 42.837096,6.1573 2.63722,-1.24948 0.059,-4.35593 -1.13859,-5.66045 -9.68406,-14.77628 -22.846162,-27.87338 -39.436421,-34.64379 -2.085048,-0.81044 -1.068676,-3.65613 1.008848,-3.46134 10.35419,-2.61755 21.421295,0.0689 30.181153,5.9371 1.37004,0.37349 6.21967,3.96656 4.347,1.22895 -11.1258,-19.59501 -28.083351,-36.08731 -48.71398,-45.37079 11.971174,-5.33956 25.602151,-2.66044 37.21078,2.26883 3.75709,1.1105 7.08887,3.84622 10.89232,4.39033 -2.04522,-4.34573 -5.98816,-8.42779 -8.96332,-12.48616 -10.805157,-14.14117 -23.221548,-27.84111 -39.758195,-35.27671 13.267022,-4.19141 27.052464,0.018 39.966375,3.41358 1.76515,0.18783 4.1468,1.46837 5.61519,0.96196 -2.42333,-4.63927 -6.22157,-8.62859 -9.07187,-13.09296 -8.81418,-12.37034 -18.908952,-24.4844 -32.522092,-31.78986 -1.403501,-1.08819 1.570035,-3.81767 0.649903,-0.94192 3.865108,-0.45067 -1.29416,-1.97941 2.758314,-1.65313 12.345597,-1.0551 24.149669,4.15994 34.691885,9.95281 2.92638,-0.42773 1.9246,-4.08123 -0.0138,-5.19076 -6.997929,-8.1784 -12.513024,-17.73102 -14.679024,-28.36734 -5.845583,-24.50616 1.811427,-49.57435 0.04149,-74.18891 -0.69742,-9.72988 -3.862955,-19.45992 -9.683093,-27.42349 1.279664,0.54937 2.559327,1.09874 3.838973,1.6481 z"
       id="path5535"
       inkscape:connector-curvature="0"
       class="strokeable" />
    <path
       style="display:inline;fill:none;fill-rule:evenodd;stroke:#00cbff;stroke-width:1px;stroke-linecap:butt;stroke-linejoin:miter;stroke-opacity:1"
       d="m 87.458218,247.31408 c 20.425122,9.38473 39.437562,26.05096 45.104482,48.49097 3.30589,12.71369 2.21173,25.80164 0.18866,38.66698 9.64415,-8.58893 23.73703,-11.60225 36.1529,-7.80539 -16.38512,7.87529 -27.80823,23.15978 -35.26272,39.34176 -2.22683,3.99552 -4.4834,7.97454 -6.66377,11.99596 11.94756,-8.68527 27.82984,-12.9169 41.99325,-8.02733 1.7532,0.59582 3.59148,1.37214 5.3403,2.30505 -21.9568,8.65405 -37.84995,27.58878 -49.72031,47.34422 13.26184,-7.85703 29.33723,-14.31383 44.72135,-10.26929 3.29926,0.90961 6.45554,2.26974 9.58358,3.64292 -17.05248,9.48421 -31.89338,23.49849 -40.92896,40.92716 0.85292,4.54345 6.95205,4.84268 9.6705,1.86245 11.32647,-7.75767 26.09874,-8.55834 38.62279,-3.3693 -21.33914,9.56677 -35.72575,29.10842 -47.5867,48.50936 -4.52302,5.57136 -0.51251,3.19917 3.40344,0.91436 12.27477,-6.63895 26.28438,-14.88323 40.6239,-10.27956 2.78067,0.9063 5.44141,2.17399 7.91348,3.73624 -17.16871,7.97901 -29.64595,23.05143 -40.98562,37.70792 -2.1765,3.67788 -4.11726,7.48918 -6.19803,11.22133 11.63719,-4.77329 23.19176,-13.37248 36.42997,-11.07505 3.13808,0.2783 -1.32124,1.51461 -2.34267,2.45004 -12.44564,7.54984 -21.92277,19.19039 -30.25086,30.80792 -0.75398,4.67358 5.9066,6.70745 8.75485,3.54082 11.79401,-5.81782 28.13043,-5.81653 36.86577,5.30738 2.92602,3.51769 4.97771,7.7124 6.22323,12.104 -12.20447,-10.16215 -32.18197,-11.96734 -44.34725,-0.81836 -9.59842,9.79712 -8.66026,25.87784 -2.36662,37.20732 7.61691,13.99425 24.60801,21.50916 40.12915,18.50719 20.00969,-3.28085 36.35811,-21.1838 37.83309,-41.43785 1.55245,-17.20091 -6.50043,-35.00873 -20.68111,-44.92189 8.13867,-0.58376 15.24037,4.25189 22.21645,7.45607 3.87835,0.13449 3.85682,-4.73424 3.25205,-7.41195 -1.06968,-11.10195 -6.38553,-21.9062 -14.24629,-29.55074 5.23064,1.66436 8.46747,6.43612 12.54218,9.63756 3.95363,1.45744 7.00463,-3.892 4.99144,-7.13327 -5.69538,-17.63373 -5.58042,-37.37776 2.25451,-54.4132 -0.17842,40.27917 0.0548,80.57568 -0.034,120.86357 0,44.2847 0,88.56938 0,132.85409 -17.77298,20.58096 -38.06533,41.13616 -64.81423,49.09219 -18.84248,5.17278 -40.08708,1.5877 -57.38696,12.13781 -1.44932,0.80714 -2.81623,1.75292 -4.15512,2.72998 2.51978,-3.89157 7.09185,-6.6277 8.79262,-10.96032 0.27629,-5.59536 -6.68838,-6.66754 -9.92588,-9.70515 C 94.225721,757.69888 83.178604,734.5649 83.160733,711.30407 80.893087,669.19136 94.660935,627.0316 86.888661,584.90516 c -1.299377,-7.67973 -3.529164,-15.32869 -6.090764,-22.57284 17.904597,21.50797 23.585473,51.14253 18.606701,78.22528 -1.796622,11.64791 -5.304093,23.04443 -8.725859,34.35249 4.879534,-4.78349 10.916721,-10.84837 16.533551,-13.32086 -6.79394,9.90659 -9.911817,21.99138 -10.128968,33.91874 2.369499,3.833 7.731028,2.00399 9.826698,-1.11218 9.42369,-6.70526 22.60285,-5.07464 31.4864,1.76913 -16.64095,-1.29215 -33.5025,13.10396 -32.60864,30.27575 0.16252,10.82044 8.4823,20.54887 18.99841,22.76553 8.87645,2.49614 18.74342,2.57046 27.37917,-0.75787 13.15484,-7.87864 18.77911,-23.07157 25.08812,-36.21492 3.16041,-4.59167 8.27902,-7.24118 13.17571,-9.5783 1.78754,-4.22741 -3.14434,-7.75484 -6.98774,-6.66546 -14.23126,-0.6899 -23.45671,-13.16717 -33.77311,-21.44088 -1.78381,-1.39747 -3.91493,-2.69573 -5.7729,-3.72548 4.37643,1.05387 8.6405,3.953 13.12407,3.76147 4.47408,-1.84617 3.08493,-8.63301 -1.04723,-10.01716 -15.69832,-11.66905 -28.22123,-28.07962 -33.12211,-47.21845 -5.58849,-20.89654 -4.66748,-44.13811 -15.61017,-63.6305 -5.71873,-10.54112 -15.834452,-19.23025 -25.066733,-25.40971 12.3368,-0.75753 24.004433,4.40819 35.639023,7.21145 4.23219,-1.24779 3.63977,-7.07384 0.73684,-9.40679 -9.58662,-14.52228 -22.39312,-27.38559 -38.277711,-34.83796 10.774993,-2.27549 21.406091,2.44838 30.209291,8.24672 2.5399,1.35605 6.11808,-1.32181 4.22691,-4.06031 -10.31489,-18.37319 -25.872401,-34.17538 -44.332158,-44.05562 13.342981,-2.94098 26.702851,2.67318 38.629108,8.24798 2.29328,0.66864 4.69043,0.84623 7.03434,1.26096 -4.84334,-11.24034 -13.7638,-19.95585 -21.230998,-29.42753 -6.996606,-7.9511 -15.271807,-15.3178 -24.206983,-20.61389 13.001492,-1.46107 25.313087,4.156 37.894791,6.00218 2.74013,0.11405 3.77755,-3.44902 1.61093,-4.97829 -10.876765,-15.72222 -21.878861,-32.21882 -38.262592,-42.74547 11.820618,-0.46935 22.749355,5.07944 33.162832,10.14823 5.14335,-0.11907 5.5996,-7.61859 1.63106,-9.78761 -11.951328,-13.10327 -16.579726,-31.31378 -16.056192,-48.64174 0.07712,-22.0437 6.201671,-44.94432 -0.589335,-66.63539 -0.812926,-2.43684 -1.795416,-4.8187 -2.952414,-7.11219 l 0.418172,0.19041 z"
       id="path5545"
       inkscape:connector-curvature="0"
       class="strokeable" />
    <path
       style="display:inline;fill:none;fill-rule:evenodd;stroke:#008aff;stroke-width:1px;stroke-linecap:butt;stroke-linejoin:miter;stroke-opacity:1"
       d="m 92.906842,252.92789 c 18.537628,10.04638 34.968428,27.15119 38.264088,48.75507 2.2106,13.41242 0.001,26.62415 -2.13512,39.8593 7.89564,-9.3336 20.27673,-15.13158 32.51294,-13.742 -15.51867,9.72222 -25.20288,26.00424 -33.03058,42.08789 -2.91192,5.03625 -5.56194,10.21852 -7.9009,15.54707 11.99286,-9.37411 27.17679,-17.51234 42.92024,-14.2527 1.09546,0.35451 4.21526,0.67561 3.92588,1.33285 -22.65549,11.32962 -38.05228,32.71521 -50.09187,54.32367 14.07522,-8.55935 29.6761,-17.79555 46.72898,-15.84531 3.16155,0.28375 6.11739,1.43674 9.1352,2.33026 -15.86079,9.74834 -29.49012,23.49834 -37.96155,40.18068 0.20004,6.73411 9.88659,9.06087 14.02715,4.27847 8.67695,-5.95088 20.26659,-7.45397 30.16772,-4.84087 -19.37081,10.73253 -32.24431,29.54863 -43.97444,47.69983 -2.27912,1.99937 -1.42509,7.14952 2.26962,6.21151 12.73933,-5.82965 25.25422,-15.65703 40.09013,-13.76597 2.52535,0.40714 4.89059,1.0275 7.22453,2.15878 -16.35005,9.38067 -28.94301,24.11159 -39.42005,39.51614 -2.66749,4.84026 -5.26089,9.72142 -7.9878,14.52885 12.09291,-3.71468 22.44322,-12.28377 35.22715,-13.76973 -11.38892,8.04016 -20.67655,18.88599 -28.18148,30.51031 -1.30084,6.64333 8.41533,10.72075 12.83061,6.05139 10.47427,-5.11105 24.8824,-5.14983 32.96759,4.34653 0.99945,1.24111 2.53492,3.11841 2.83264,4.12589 -13.2861,-6.72923 -31.58109,-5.77748 -41.89499,5.82943 -9.83504,12.20157 -7.55702,30.52897 1.22765,42.64874 11.09684,15.49521 33.42445,20.70008 50.56533,12.79477 20.20698,-8.3621 33.28068,-31.33503 29.29032,-53.01362 -1.6567,-10.84675 -6.69949,-21.17915 -14.35837,-29.04383 5.05343,1.59813 9.54326,5.47142 14.87604,6.08668 5.41318,-1.01866 5.58983,-7.79831 4.43849,-12.05105 -0.74227,-5.36835 -2.3884,-10.60463 -4.79746,-15.45564 1.70756,0.81582 3.82013,0.6569 5.36676,-0.44387 0.0506,63.10964 -0.004,126.21932 0.0138,189.329 -16.99535,19.60245 -36.40867,39.26175 -61.75742,47.15883 -16.67497,5.01778 -34.99643,2.58272 -51.42315,9.01336 2.22735,-4.1176 -0.84866,-8.51372 -4.50715,-10.45688 -18.17863,-9.87338 -30.086135,-29.48807 -33.605554,-49.48184 -2.0726,-13.31234 -1.315422,-27.16592 -0.542851,-40.67497 4.586648,-4.26455 8.874196,-8.84567 13.577485,-12.98418 -3.54421,8.49365 -5.775047,17.94503 -4.89317,27.11077 3.106121,5.21365 10.99857,3.6111 14.06364,-0.81458 5.74444,-4.04555 14.70265,-4.24675 20.28563,-1.81706 -15.66513,3.4111 -28.62172,19.29439 -25.7733,35.66644 1.8549,12.35319 13.2116,21.74005 25.39931,22.81692 11.0763,2.00529 24.12732,0.89399 32.101,-7.9716 9.31512,-9.11851 13.41158,-21.9053 19.78433,-32.90363 3.25898,-3.86431 8.84011,-4.9985 12.16307,-8.58844 2.32601,-5.8373 -4.62303,-11.56072 -10.18816,-9.95533 -10.74283,-0.99409 -18.75362,-9.41598 -26.13351,-16.23997 5.96704,-0.37259 7.44561,-8.59548 3.68406,-12.42555 -3.17864,-3.41302 -7.69264,-5.20453 -10.79896,-8.78071 -14.67935,-13.35892 -24.36508,-31.86449 -26.77534,-51.53105 -3.42815,-20.49967 -5.00166,-43.00495 -18.56322,-59.87971 -3.96627,-4.97778 -8.623833,-9.37208 -13.622834,-13.29564 9.704804,1.08981 18.731414,5.7319 28.340184,6.68817 5.60079,-1.82681 5.81883,-10.10268 1.6084,-13.50494 -8.08658,-12.16228 -18.31036,-23.10067 -30.748355,-30.86594 7.954355,0.94947 14.672895,5.76889 21.721445,8.96422 4.57212,0.6593 8.43838,-5.33435 5.09949,-8.95971 -9.23498,-16.21732 -22.350567,-30.24594 -38.048188,-40.34405 11.432352,0.0765 21.380819,5.68467 31.908358,9.45977 3.28049,0.59433 6.59813,0.96146 9.86572,1.63421 -5.79907,-15.51981 -17.78547,-27.46599 -28.427069,-39.72168 -3.974122,-4.03444 -8.310719,-7.83328 -12.818016,-11.17089 10.586576,0.83841 20.560351,5.71193 31.176595,5.84329 4.50721,-1.30872 4.50735,-7.73764 1.03092,-10.19605 -9.00762,-13.05829 -18.199017,-26.40635 -30.514744,-36.56181 8.84875,1.63649 16.638723,6.77253 25.051604,9.36899 6.80798,-0.64382 8.14525,-11.17881 2.48753,-14.35358 -13.112568,-14.47456 -16.421258,-35.26125 -14.90714,-54.18916 1.202498,-20.10371 5.348561,-41.13412 -1.261156,-60.79075 l 0.568038,0.30561 0.224176,0.12057 z M 238.04239,508.52691 c -0.13016,1.45337 0.30689,10.59866 -0.28968,5.86602 -1.02974,-7.52239 -0.9846,-15.13597 0.30479,-22.65829 -0.005,5.59741 -0.0108,11.19486 -0.0155,16.79227 z M 88.507388,578.63409 c 11.973242,23.05551 12.350472,50.58208 5.499981,75.28243 -2.210625,8.77661 -4.991252,17.43181 -7.554246,26.13705 2.77646,-33.86879 9.662846,-68.49828 1.641139,-102.20506 l 0.300427,0.57127 0.112773,0.21431 z"
       id="path5551"
       inkscape:connector-curvature="0"
       class="strokeable" />
    <path
       style="display:inline;fill:none;fill-rule:evenodd;stroke:#006bff;stroke-width:1px;stroke-linecap:butt;stroke-linejoin:miter;stroke-opacity:1"
       d="m 96.653879,258.0903 c 17.636591,10.79907 32.215091,29.44954 32.726101,50.92556 0.78146,13.98414 -2.39586,27.69303 -4.34938,41.45908 6.68249,-9.69401 16.32963,-18.34199 28.39306,-19.98883 -16.0358,13.40388 -24.67679,33.06767 -33.97142,51.27829 -1.78813,3.8378 -3.40642,7.75144 -5.02545,11.6628 12.06183,-9.68376 25.85367,-20.27578 41.895,-20.3898 1.11791,0.0876 3.82711,-0.0599 3.96618,0.44007 -22.81393,14.06859 -37.54041,37.46582 -49.89286,60.60455 15.31606,-8.92831 30.76533,-20.62184 49.27696,-20.75297 2.52283,0.0352 5.07393,0.17984 7.51674,0.8587 -14.43747,10.00903 -27.36545,23.25038 -34.49159,39.43924 0.13928,8.73202 12.78408,12.38932 18.29308,6.13586 6.20158,-4.14438 13.84063,-5.88887 21.24033,-5.38433 -17.3567,11.95737 -29.51326,29.83165 -40.39241,47.50561 -1.55371,4.30022 3.27283,9.68969 7.59915,7.03931 12.53389,-5.84417 25.21823,-15.68371 39.6626,-13.01754 -19.32124,13.06448 -33.70756,32.26629 -44.12439,52.91721 -2.90764,3.92608 -2.85013,5.61484 2.01918,3.46842 8.67353,-2.56334 16.42643,-7.45829 24.68876,-10.91899 -7.56451,7.25216 -14.66534,15.40496 -19.58157,24.63676 -1.33402,8.58755 10.97377,14.1431 16.94289,8.224 8.07937,-3.78955 18.06494,-4.43139 25.76322,0.54602 -13.6159,-3.16755 -30.10984,0.88948 -37.72729,13.39396 -10.58053,18.1401 -2.05045,43.29405 15.68137,53.51095 15.40009,9.3282 36.08303,8.20235 50.56732,-2.42933 12.18739,-8.43488 20.38597,-22.29189 22.16999,-36.99283 -6.4e-4,41.33531 -0.001,82.6706 -0.004,124.00592 -17.48162,20.0766 -37.64765,40.31518 -64.34445,46.79941 -14.19014,3.09134 -28.98304,2.26832 -42.98193,6.43097 -0.88046,-7.354 -8.9619,-9.63281 -13.89946,-13.63287 -18.572591,-14.39473 -27.172752,-38.39992 -26.245165,-61.37063 -0.01945,-6.86944 0.346051,-13.67608 0.730855,-20.52728 1.805333,-1.69337 3.561461,-3.43842 5.327713,-5.17248 -1.581968,6.48304 -3.001101,13.6598 -0.93456,20.12376 4.327059,6.0787 14.090587,4.25249 18.140687,-1.23071 2.21966,-1.37477 5.63657,-2.25881 7.80643,-2.27099 -13.66445,7.4122 -22.464456,24.73735 -16.90637,39.90323 4.36146,12.46532 17.37432,20.18447 30.20712,20.58852 12.05587,1.62358 25.55016,-1.94731 33.05585,-12.06976 8.27591,-9.25045 11.53792,-21.71075 18.68939,-31.64359 4.08266,-3.2488 11.43958,-4.63509 11.83433,-10.91618 0.20774,-6.77617 -7.25204,-12.0742 -13.64928,-10.57572 -8.28926,-1.19577 -15.52708,-7.09166 -20.74786,-12.89967 5.56705,-4.63006 3.75649,-14.44377 -2.54168,-17.56777 -19.89906,-13.70846 -32.33303,-36.8024 -34.46407,-60.73086 -3.05225,-20.30483 -5.84084,-42.43832 -19.94036,-58.50104 -1.56409,-1.8305 -3.21784,-3.58367 -4.944833,-5.26073 6.764153,1.78769 13.667713,5.06154 20.761723,4.31376 6.92641,-2.95041 7.12274,-13.48438 1.62604,-17.94732 -4.79606,-7.09455 -10.28626,-13.73839 -16.5323,-19.60298 3.48604,1.87716 8.18687,4.10987 11.60636,0.81206 3.60863,-2.77558 4.37311,-8.49921 1.19966,-11.8714 -7.62053,-13.15038 -17.74149,-24.85357 -29.702316,-34.22571 10.145164,2.96166 19.551006,8.6963 30.262006,9.41426 2.78185,0.465 7.046,2.34083 4.33792,-1.9191 -6.65577,-18.10892 -20.61064,-32.15545 -33.575945,-45.89409 -3.511154,-2.5406 2.50587,0.004 3.939742,0.14257 6.080433,1.41685 12.681563,3.75893 18.872473,2.10455 5.54057,-3.05633 4.52764,-11.44385 -0.0639,-14.9018 -6.6285,-9.59481 -13.350574,-19.20672 -21.429595,-27.65327 5.301596,2.06634 10.548705,5.71537 16.355945,5.67307 8.07112,-1.9542 9.557,-14.5094 2.60342,-18.71651 -13.240958,-14.93633 -15.699139,-36.34755 -13.784052,-55.40052 1.331657,-17.30818 4.077442,-35.02442 0.134806,-52.19767 l 0.3539,0.21688 z M 227.31015,566.91215 c 2.50727,1.21674 5.6089,1.96184 8.21574,0.87636 -0.0995,7.51524 -0.0121,15.12308 -0.0265,22.68982 -1.18309,-8.38124 -3.98172,-16.58991 -8.55205,-23.73767 l 0.36274,0.17142 z M 94.328834,603.73614 c 2.953548,16.13562 1.508091,32.9126 -2.519023,48.83215 1.738051,-16.48124 3.241373,-33.07164 2.362835,-49.6581 l 0.119999,0.63436 0.03632,0.19159 z"
       id="path5557"
       inkscape:connector-curvature="0"
       class="strokeable" />
    <path
       style="display:inline;fill:#006bff;fill-opacity:1;fill-rule:evenodd;stroke:#006bff;stroke-width:1px;stroke-linecap:butt;stroke-linejoin:miter;stroke-opacity:1"
       d="m 245.35261,650.34431 -13.6797,20.73159 c 3.472,3.17376 -0.11064,30.46069 -9.44552,30.65195 5.37345,31.48332 -22.39956,55.38888 -25.24233,53.15177 -15.96069,92.3486 -75.10835,58.22797 -128.260186,74.16151 L 38.78456,840.3394 c 0,0 83.79292,196.9124 206.56805,188.1505 z"
       id="path6962"
       inkscape:connector-curvature="0"
       sodipodi:nodetypes="ccccccc"
       class="colorable" />
  </g>
</svg>
